<?xml version="1.0" encoding="UTF-8"?>
<svg version="1.1" xmlns="http://www.w3.org/2000/svg" width="256" height="256">
<path d="M0 0 C0.89847656 0.72316406 1.79695312 1.44632813 2.72265625 2.19140625 C15.78976214 13.30314665 25.19015366 27.37249021 32 43 C32.47953125 44.051875 32.9590625 45.10375 33.453125 46.1875 C36.20868441 52.69460414 37.88317354 59.29055398 39.3125 66.1875 C39.48426758 67.00702148 39.65603516 67.82654297 39.83300781 68.67089844 C40.95197566 74.49467054 41.19067829 80.07798737 41 86 C41.81984375 86.02578125 42.6396875 86.0515625 43.484375 86.078125 C44.56203125 86.13484375 45.6396875 86.1915625 46.75 86.25 C47.81734375 86.29640625 48.8846875 86.3428125 49.984375 86.390625 C53.63249935 87.12781075 54.66256753 88.1623966 57 91 C57.63421875 91.72316406 58.2684375 92.44632812 58.921875 93.19140625 C59.52515625 93.97386719 60.1284375 94.75632812 60.75 95.5625 C61.36359375 96.32691406 61.9771875 97.09132813 62.609375 97.87890625 C66.46483187 106.53202433 63.30874804 117.52420271 61.69921875 126.4609375 C61.45925598 127.82320033 61.21983037 129.18555789 60.98091125 130.54800415 C60.48180943 133.3812852 59.9759194 136.21324467 59.46508789 139.04443359 C58.81276873 142.66327128 58.1783904 146.28499125 57.54905987 149.90788841 C57.05968621 152.71281777 56.56060735 155.51595382 56.0586338 158.31865311 C55.70579348 160.29903557 55.36132296 162.28090341 55.01701355 164.26278687 C54.79701187 165.46819122 54.57701019 166.67359558 54.3503418 167.91552734 C54.16158981 168.97266937 53.97283783 170.0298114 53.77836609 171.11898804 C51.82678986 178.34247135 46.86582214 182.43275233 40.69921875 186.2890625 C35.19360455 189.2089914 30.13384502 187.95700467 24.28271484 186.53515625 C20.66159729 185.68622687 17.00722441 185.02988159 13.34936523 184.36010742 C11.39677025 184.0006171 9.44684595 183.6262386 7.50024414 183.2355957 C6.60039795 183.06116943 5.70055176 182.88674316 4.7734375 182.70703125 C3.97341309 182.5469458 3.17338867 182.38686035 2.34912109 182.22192383 C-3.295771 181.6886452 -6.89433693 184.02026355 -11.375 187.125 C-37.021123 204.18944386 -67.82107417 209.59923467 -98 204 C-128.60570298 197.26426212 -156.17086854 179.64300692 -173.20751953 153.12011719 C-179.11032215 143.59606619 -183.74297707 133.72281258 -187 123 C-187.21027832 122.31196289 -187.42055664 121.62392578 -187.63720703 120.91503906 C-194.77729531 96.30067298 -192.78221123 68.90150296 -183.01904297 45.3347168 C-180.43617497 39.06600361 -179.8913808 33.32654294 -180.11694336 26.64453125 C-180.53240841 13.28064504 -177.91934621 2.34206401 -169 -8 C-159.34232721 -18.26002245 -145.47568129 -23.8035085 -131.4921875 -24.28125 C-124.56018549 -24.37069891 -117.63045733 -24.44939144 -110.765625 -23.39453125 C-106.78835946 -22.97782604 -103.98445736 -23.40345069 -100.125 -24.375 C-64.85468742 -32.55741362 -27.71693424 -22.9991582 0 0 Z " fill="#FDFEFE" transform="translate(192,38)"/>
<path d="M0 0 C0.89847656 0.72316406 1.79695312 1.44632813 2.72265625 2.19140625 C15.78976214 13.30314665 25.19015366 27.37249021 32 43 C32.47953125 44.051875 32.9590625 45.10375 33.453125 46.1875 C36.20868441 52.69460414 37.88317354 59.29055398 39.3125 66.1875 C39.48426758 67.00702148 39.65603516 67.82654297 39.83300781 68.67089844 C40.95197566 74.49467054 41.19067829 80.07798737 41 86 C41.81984375 86.02578125 42.6396875 86.0515625 43.484375 86.078125 C44.56203125 86.13484375 45.6396875 86.1915625 46.75 86.25 C47.81734375 86.29640625 48.8846875 86.3428125 49.984375 86.390625 C53.63249935 87.12781075 54.66256753 88.1623966 57 91 C57.63421875 91.72316406 58.2684375 92.44632812 58.921875 93.19140625 C59.52515625 93.97386719 60.1284375 94.75632812 60.75 95.5625 C61.36359375 96.32691406 61.9771875 97.09132813 62.609375 97.87890625 C66.46483187 106.53202433 63.30874804 117.52420271 61.69921875 126.4609375 C61.45925598 127.82320033 61.21983037 129.18555789 60.98091125 130.54800415 C60.48180943 133.3812852 59.9759194 136.21324467 59.46508789 139.04443359 C58.81276873 142.66327128 58.1783904 146.28499125 57.54905987 149.90788841 C57.05968621 152.71281777 56.56060735 155.51595382 56.0586338 158.31865311 C55.70579348 160.29903557 55.36132296 162.28090341 55.01701355 164.26278687 C54.79701187 165.46819122 54.57701019 166.67359558 54.3503418 167.91552734 C54.16158981 168.97266937 53.97283783 170.0298114 53.77836609 171.11898804 C51.82678986 178.34247135 46.86582214 182.43275233 40.69921875 186.2890625 C35.19360455 189.2089914 30.13384502 187.95700467 24.28271484 186.53515625 C20.66159729 185.68622687 17.00722441 185.02988159 13.34936523 184.36010742 C11.39677025 184.0006171 9.44684595 183.6262386 7.50024414 183.2355957 C6.60039795 183.06116943 5.70055176 182.88674316 4.7734375 182.70703125 C3.97341309 182.5469458 3.17338867 182.38686035 2.34912109 182.22192383 C-3.295771 181.6886452 -6.89433693 184.02026355 -11.375 187.125 C-37.021123 204.18944386 -67.82107417 209.59923467 -98 204 C-128.60570298 197.26426212 -156.17086854 179.64300692 -173.20751953 153.12011719 C-179.11032215 143.59606619 -183.74297707 133.72281258 -187 123 C-187.21027832 122.31196289 -187.42055664 121.62392578 -187.63720703 120.91503906 C-194.77729531 96.30067298 -192.78221123 68.90150296 -183.01904297 45.3347168 C-180.43617497 39.06600361 -179.8913808 33.32654294 -180.11694336 26.64453125 C-180.53240841 13.28064504 -177.91934621 2.34206401 -169 -8 C-159.34232721 -18.26002245 -145.47568129 -23.8035085 -131.4921875 -24.28125 C-124.56018549 -24.37069891 -117.63045733 -24.44939144 -110.765625 -23.39453125 C-106.78835946 -22.97782604 -103.98445736 -23.40345069 -100.125 -24.375 C-64.85468742 -32.55741362 -27.71693424 -22.9991582 0 0 Z M-160 -10 C-160.886875 -9.4225 -161.77375 -8.845 -162.6875 -8.25 C-171.29550538 0.12535659 -175.9357755 10.215772 -176.203125 22.2421875 C-176.22506265 26.58430224 -176.12753266 30.91844089 -175.94995117 35.25683594 C-176 37 -176 37 -177 38 C-177.67892444 43.09193328 -176.58344447 46.30930722 -174.5 51 C-171.18448702 58.54208761 -171.67544031 63.20588811 -174 71 C-178.03096716 97.63317589 -173.09342086 123.93484311 -157.98046875 146.4140625 C-154.00479293 151.60518162 -149.52977462 156.29418033 -145 161 C-144.41605469 161.65871094 -143.83210938 162.31742188 -143.23046875 162.99609375 C-129.42362689 178.13118875 -105.84530609 187.84654109 -85.74829102 189.22265625 C-71.69101936 189.69309073 -58.35536331 189.73161443 -45 185 C-43.19982422 184.36964844 -43.19982422 184.36964844 -41.36328125 183.7265625 C-36.07043083 181.77063793 -31.02389614 179.57157888 -26 177 C-29.08888522 174.94074319 -29.70935927 174.7609626 -33.1875 174.875 C-34.445625 174.91625 -35.70375 174.9575 -37 175 C-37.25523437 174.27425781 -37.51046875 173.54851562 -37.7734375 172.80078125 C-39.44658405 168.98025234 -41.94661577 166.03617252 -44.5390625 162.79296875 C-48.09644451 155.99209138 -45.39427356 147.33555404 -44.125 140.125 C-43.95097656 139.10019531 -43.77695313 138.07539063 -43.59765625 137.01953125 C-42.8068845 132.40962485 -41.97253205 127.81886298 -41.0078125 123.2421875 C-40.26787478 119.64604703 -39.72253664 116.05213818 -39.25086975 112.41117859 C-35.76961203 85.8122966 -35.76961203 85.8122966 -28.91699219 80.14648438 C-24.89788187 77.52633768 -21.80311619 75.89145861 -16.8203125 76.19140625 C-15.55960938 76.45824219 -14.29890625 76.72507812 -13 77 C-11.07015431 77.31948806 -9.13902399 77.63126303 -7.20703125 77.9375 C-5.07537674 78.29079834 -2.94386948 78.64498613 -0.8125 79 C0.80688477 79.26683594 0.80688477 79.26683594 2.45898438 79.5390625 C3.49732422 79.71179688 4.53566406 79.88453125 5.60546875 80.0625 C7.01542114 80.29646484 7.01542114 80.29646484 8.45385742 80.53515625 C10.04222915 80.82514184 11.62413612 81.15747798 13.18969727 81.55249023 C15.42132214 82.10415151 17.45500047 82.09624999 19.75 82.0625 C20.54921875 82.05347656 21.3484375 82.04445313 22.171875 82.03515625 C22.77515625 82.02355469 23.3784375 82.01195313 24 82 C25.285461 60.57564998 13.82146008 38.6009426 0 23 C-16.01962107 5.35084002 -39.42709216 -8.90488182 -63.86157227 -10.14526367 C-93.56580187 -10.37351232 -119.83543935 -6.04073959 -142.453125 15.31640625 C-143.81225292 16.6828676 -145.15618765 18.06480713 -146.4765625 19.46875 C-148 21 -148 21 -150 22 C-150.4813341 20.27143541 -150.95996971 18.54211929 -151.4375 16.8125 C-151.70433594 15.84957031 -151.97117187 14.88664062 -152.24609375 13.89453125 C-152.49488281 12.93933594 -152.74367188 11.98414062 -153 11 C-153.28230469 10.1440625 -153.56460938 9.288125 -153.85546875 8.40625 C-154 6 -154 6 -152.3671875 3.82421875 C-141.27646628 -5.6845971 -129.25534093 -12.13318244 -116 -18 C-116 -18.66 -116 -19.32 -116 -20 C-132.22051024 -20.6285666 -146.27712758 -19.73708687 -160 -10 Z " fill="#0066A4" transform="translate(192,38)"/>
<path d="M0 0 C1.12148437 0.37382813 2.24296875 0.74765625 3.3984375 1.1328125 C16.07258079 5.67864537 27.01896083 11.96330952 37 21 C37.91652344 21.82242188 38.83304688 22.64484375 39.77734375 23.4921875 C55.02044455 37.9015142 67.04096992 58.84247511 69 80 C69.06623597 82.67309459 69.04692635 85.32519819 69 88 C62.24157805 88.20584026 56.17239854 87.48856356 49.5625 86.125 C48.68529297 85.95097656 47.80808594 85.77695313 46.90429688 85.59765625 C43.35782509 84.89202074 39.81537468 84.18471841 36.28857422 83.38574219 C35.41861816 83.19399414 34.54866211 83.00224609 33.65234375 82.8046875 C32.87753662 82.62663574 32.10272949 82.44858398 31.30444336 82.26513672 C24.52181456 81.48476434 19.07708421 85.38506042 13.8515625 89.234375 C9.87150594 93.09448465 9.33761393 96.29379707 8.98046875 101.69140625 C8.98691406 102.45324219 8.99335938 103.21507812 9 104 C1.47655334 102.76600642 -5.39583758 100.61114845 -12.5 97.875 C-13.54591309 97.47611572 -14.59182617 97.07723145 -15.66943359 96.66625977 C-38.24173942 87.96511668 -59.47445529 77.67931207 -77.68359375 61.43359375 C-79.96955427 59.73194308 -79.96955427 59.73194308 -82.98828125 60.0390625 C-86 60 -86 60 -88.421875 58.33984375 C-100.47993601 45.89738147 -111.61985324 30.86689783 -112 13 C-111.34 12.67 -110.68 12.34 -110 12 C-109.16280617 14.29032311 -108.3301071 16.58210957 -107.5 18.875 C-107.26152344 19.52597656 -107.02304688 20.17695312 -106.77734375 20.84765625 C-105 25.7734375 -105 25.7734375 -105 28 C-104.5153125 27.57589844 -104.030625 27.15179688 -103.53125 26.71484375 C-102.10812728 25.46961137 -100.68209465 24.2277004 -99.25390625 22.98828125 C-97.88545675 21.78110483 -96.53371533 20.55412166 -95.21484375 19.29296875 C-70.86492425 -3.55849416 -31.28199324 -10.80393897 0 0 Z " fill="#72C3ED" transform="translate(147,32)"/>
<path d="M0 0 C1.61406859 2.99755595 2.60987963 5.92466019 3.5625 9.1875 C7.32479024 20.65686987 13.44358221 31.56148795 20.78515625 41.1171875 C22 43 22 43 22 46 C21.34 46 20.68 46 20 46 C29.15971829 57.69277618 39.22477569 67.91143052 51 77 C51.55671387 77.433125 52.11342773 77.86625 52.68701172 78.3125 C61.37436896 85.03142282 70.3107858 90.82872853 80.0234375 95.95458984 C81.92164048 96.9585554 83.80425224 97.98786961 85.6875 99.01953125 C98.9110526 106.09384552 114.11421842 112.82362815 129 115 C128.814375 116.216875 128.62875 117.43375 128.4375 118.6875 C128.34594852 125.07575862 132.35169313 129.44050101 136.03125 134.27734375 C138 137 138 137 138 139 C139.98567708 138.93489583 141.97135417 138.86979167 143.95703125 138.8046875 C146 139 146 139 149 141 C133.03883765 148.95822661 118.42167327 153.17439654 100.4375 153.25 C99.23802734 153.270625 98.03855469 153.29125 96.80273438 153.3125 C70.58203842 153.42570322 46.62259697 141.72556044 28.1875 123.5625 C18.69794401 113.91644666 12.67316325 103.17777924 7 91 C6.47277344 89.87207031 5.94554687 88.74414062 5.40234375 87.58203125 C-1.23798075 70.62053385 -2.58417081 49.63400014 2 32 C3.74165693 25.29650031 3.31012579 21.35056677 0.5 15 C-1.57466108 10.30997297 -2.77460675 7.09027294 -2 2 C-1.34 1.34 -0.68 0.68 0 0 Z " fill="#72C3ED" transform="translate(17,74)"/>
<path d="M0 0 C-2.46278801 2.46278801 -4.70676982 2.99771255 -8 4 C-8 3.34 -8 2.68 -8 2 C-25.15239841 2.36926584 -41.18850699 3.66280149 -54.75 15.375 C-55.4925 16.24125 -56.235 17.1075 -57 18 C-57.49113281 18.53882812 -57.98226562 19.07765625 -58.48828125 19.6328125 C-66.54470062 29.1885655 -67.47177958 40.09646428 -67.02880859 52.10839844 C-66.87874056 56.57533587 -66.84857419 59.93063644 -69 64 C-74.25267206 54.54519028 -73.26603869 40.15372863 -70.4375 30 C-66.39972299 18.75089493 -58.87692585 9.98457125 -48.375 4.3125 C-33.58070327 -2.43655984 -15.74906938 -5.41577351 0 0 Z " fill="#056CA9" transform="translate(84,16)"/>
<path d="M0 0 C2.37966132 2.37966132 2.65456888 3.90557275 3.5625 7.125 C5.58638775 13.51459196 8.60930565 19.00472649 12.00219727 24.74267578 C15 29.82723955 15 29.82723955 15 32 C13.515 32.495 13.515 32.495 12 33 C4.62222497 23.19840262 -1.32695234 13.65772613 -1 1 C-0.67 0.67 -0.34 0.34 0 0 Z " fill="#78A3CE" transform="translate(36,44)"/>
<path d="M0 0 C0.66 0 1.32 0 2 0 C2.59167969 1.07378906 3.18335938 2.14757812 3.79296875 3.25390625 C4.59092473 4.69022702 5.38911434 6.12641802 6.1875 7.5625 C6.57486328 8.26697266 6.96222656 8.97144531 7.36132812 9.69726562 C9.33651854 13.23954925 11.37429134 16.58654987 13.80078125 19.83984375 C16 23 16 23 16 26 C15.01 26.33 14.02 26.66 13 27 C4.30904835 14.74935573 4.30904835 14.74935573 0.875 9 C0.48054688 8.34 0.08609375 7.68 -0.3203125 7 C-1.21152516 4.37758113 -0.72164639 2.63081214 0 0 Z " fill="#BDD1E8" transform="translate(23,94)"/>
<path d="M0 0 C2.26653186 0.77941807 3.68262117 1.72350039 5.54394531 3.22290039 C6.16269531 3.7159668 6.78144531 4.2090332 7.41894531 4.71704102 C8.05316406 5.23331055 8.68738281 5.74958008 9.34082031 6.28149414 C9.99050781 6.80163086 10.64019531 7.32176758 11.30957031 7.85766602 C12.908097 9.13883814 14.50010657 10.42813419 16.09082031 11.71899414 C15.76082031 12.70899414 15.43082031 13.69899414 15.09082031 14.71899414 C10.75615729 14.18516864 7.78122717 11.45635713 4.46582031 8.84399414 C3.88058594 8.39668945 3.29535156 7.94938477 2.69238281 7.48852539 C-0.02648113 5.37454632 -1.98352502 3.60747615 -3.90917969 0.71899414 C-1.90917969 -0.28100586 -1.90917969 -0.28100586 0 0 Z " fill="#D4E2F1" transform="translate(65.9091796875,91.281005859375)"/>
<path d="M0 0 C1.80504424 3.61008849 1.18469906 7.83797165 1.1875 11.8125 C1.19974609 12.71548828 1.21199219 13.61847656 1.22460938 14.54882812 C1.23470822 19.13033739 1.20121607 22.84988116 -1 27 C-3.87546643 21.82416042 -4.19344578 16.79622081 -4.3125 10.9375 C-4.34988281 9.72964844 -4.38726562 8.52179687 -4.42578125 7.27734375 C-3.92912861 3.45448537 -2.96948051 2.34864238 0 0 Z " fill="#1376B0" transform="translate(16,53)"/>
<path d="M0 0 C5 5 10 10 15 15 C14.34 15.66 13.68 16.32 13 17 C9.06072348 16.76581796 7.09475044 14.46570096 4.4375 11.75 C3.67308594 10.98171875 2.90867187 10.2134375 2.12109375 9.421875 C0.05976525 7.06824025 -1.48503242 4.72984574 -3 2 C-2.01 1.34 -1.02 0.68 0 0 Z " fill="#9DBADB" transform="translate(51,75)"/>
<path d="M0 0 C1.73364794 3.23406971 2.91742948 6.51689574 4.0625 10 C4.40410156 11.03125 4.74570312 12.0625 5.09765625 13.125 C7.29762819 20.13443442 7.29762819 20.13443442 5 25 C-3.08969242 9.16083588 -3.08969242 9.16083588 -2 2 C-1.34 1.34 -0.68 0.68 0 0 Z " fill="#719FCB" transform="translate(17,74)"/>
<path d="M0 0 C5.53056571 0.16993358 10.32017082 0.60255379 15.546875 2.4609375 C13.08408699 4.92372551 10.84010518 5.45865005 7.546875 6.4609375 C7.546875 5.8009375 7.546875 5.1409375 7.546875 4.4609375 C3.256875 4.4609375 -1.033125 4.4609375 -5.453125 4.4609375 C-2.453125 0.4609375 -2.453125 0.4609375 0 0 Z " fill="#1E79B2" transform="translate(68.453125,13.5390625)"/>
<path d="M0 0 C4 4 8 8 12 12 C11.01 13.32 10.02 14.64 9 16 C7.16056628 14.04709472 5.32840869 12.08818082 3.5 10.125 C2.97535156 9.56941406 2.45070313 9.01382813 1.91015625 8.44140625 C-2 4.2265625 -2 4.2265625 -2 2 C-1.34 2 -0.68 2 0 2 C0 1.34 0 0.68 0 0 Z " fill="#D1E0F0" transform="translate(39,118)"/>
<path d="M0 0 C2.49936244 2.49936244 3.03723753 4.64808008 4.125 8 C4.47820313 9.0725 4.83140625 10.145 5.1953125 11.25 C6 14 6 14 6 16 C4.35 15.67 2.7 15.34 1 15 C-0.32558098 10.19476896 -1.36809815 6.03067466 -1 1 C-0.67 0.67 -0.34 0.34 0 0 Z " fill="#528FC1" transform="translate(36,44)"/>
<path d="M0 0 C0.66 0 1.32 0 2 0 C2.67667998 1.24460783 3.34094719 2.49596896 4 3.75 C4.556875 4.79414062 4.556875 4.79414062 5.125 5.859375 C6 8 6 8 6 12 C5.01 12 4.02 12 3 12 C-1.06153846 5.72307692 -1.06153846 5.72307692 -0.75 2.0625 C-0.5025 1.381875 -0.255 0.70125 0 0 Z " fill="#8FB1D6" transform="translate(23,94)"/>
<path d="M0 0 C1.32 0 2.64 0 4 0 C5.51708428 9.41002278 5.51708428 9.41002278 3 14 C1.20724134 10.88089144 0.65709282 8.32317572 0.375 4.75 C0.30023438 3.85796875 0.22546875 2.9659375 0.1484375 2.046875 C0.09945313 1.37140625 0.05046875 0.6959375 0 0 Z " fill="#2B7DB5" transform="translate(12,66)"/>
<path d="M0 0 C3.28288776 0.11320303 4.30354487 1.28284863 6.75 3.5625 C7.86375 4.7690625 7.86375 4.7690625 9 6 C6.875 6.8125 6.875 6.8125 4 7 C1.69892439 5.55576519 -0.01646386 3.89127865 -2 2 C-1.34 1.34 -0.68 0.68 0 0 Z " fill="#C2D5EA" transform="translate(64,91)"/>
<path d="M0 0 C2.99329122 1.23253168 4.26881368 3.28959763 6.125 5.875 C4.475 6.205 2.825 6.535 1.125 6.875 C-0.525 4.895 -2.175 2.915 -3.875 0.875 C-1.875 -0.125 -1.875 -0.125 0 0 Z " fill="#A7C1DF" transform="translate(59.875,85.125)"/>
<path d="M0 0 C4.42857143 5.14285714 4.42857143 5.14285714 5 9 C4.01 9.66 3.02 10.32 2 11 C-2 5.25 -2 5.25 -2 3 C-1.34 3 -0.68 3 0 3 C0 2.01 0 1.02 0 0 Z " fill="#A5C0DE" transform="translate(29,103)"/>
<path d="M0 0 C2.08466413 3.38757921 2.42905061 6.05273438 2 10 C1.01 10.66 0.02 11.32 -1 12 C-2.17353189 8.47940432 -2.20146402 5.693507 -2 2 C-1.34 1.34 -0.68 0.68 0 0 Z " fill="#538EC0" transform="translate(17,74)"/>
<path d="M0 0 C1.64666203 0.1135629 3.29236082 0.24117381 4.9375 0.375 C5.85402344 0.44460938 6.77054687 0.51421875 7.71484375 0.5859375 C8.84599609 0.79089844 8.84599609 0.79089844 10 1 C10.33 1.66 10.66 2.32 11 3 C8.36 3.99 5.72 4.98 3 6 C3 5.34 3 4.68 3 4 C2.01 3.67 1.02 3.34 0 3 C0 2.01 0 1.02 0 0 Z " fill="#307FB6" transform="translate(73,14)"/>
<path d="M0 0 C1.65 0 3.3 0 5 0 C5.73080266 1.97746603 6.39421747 3.98072489 7 6 C6.67 6.66 6.34 7.32 6 8 C5.01 7.67 4.02 7.34 3 7 C1.3125 3.4375 1.3125 3.4375 0 0 Z " fill="#6497C6" transform="translate(38,60)"/>
<path d="M0 0 C1.98 1.65 3.96 3.3 6 5 C5.01 6.32 4.02 7.64 3 9 C0.9375 7.3125 0.9375 7.3125 -1 5 C-0.75 2.25 -0.75 2.25 0 0 Z " fill="#E2EDF6" transform="translate(45,125)"/>
<path d="M0 0 C2.5654594 2.5654594 2.54046087 4.47686668 3 8 C2.01 8.66 1.02 9.32 0 10 C-0.19412181 8.52168779 -0.38012131 7.04230684 -0.5625 5.5625 C-0.66691406 4.73878906 -0.77132812 3.91507813 -0.87890625 3.06640625 C-0.91886719 2.38449219 -0.95882812 1.70257813 -1 1 C-0.67 0.67 -0.34 0.34 0 0 Z " fill="#3081B7" transform="translate(36,44)"/>
<path d="M0 0 C1.32 1.32 2.64 2.64 4 4 C3.01 5.485 3.01 5.485 2 7 C1.34 7 0.68 7 0 7 C-1.625 4.5 -1.625 4.5 -3 2 C-2.01 1.34 -1.02 0.68 0 0 Z " fill="#8FB0D6" transform="translate(51,75)"/>
<path d="M0 0 C0 1.98 0 3.96 0 6 C-0.99 6.33 -1.98 6.66 -3 7 C-3.33 5.35 -3.66 3.7 -4 2 C-1 0 -1 0 0 0 Z " fill="#227AB3" transform="translate(16,60)"/>
<path d="M0 0 C-0.33 0.99 -0.66 1.98 -1 3 C-3.86724686 2.42655063 -4.8614515 2.1385485 -7 0 C-4.3333581 -1.33332095 -2.83319697 -0.67102033 0 0 Z " fill="#E6EFF7" transform="translate(82,103)"/>
<path d="M0 0 C0.33 0 0.66 0 1 0 C1.19622241 4.21878192 0.80230168 7.17010894 -1 11 C-1.33 11 -1.66 11 -2 11 C-2.25 3.375 -2.25 3.375 0 0 Z " fill="#4187BB" transform="translate(16,69)"/>
<path d="M0 0 C0.99 0.66 1.98 1.32 3 2 C2.34 3.32 1.68 4.64 1 6 C0.01 5.34 -0.98 4.68 -2 4 C-2 3.34 -2 2.68 -2 2 C-1.34 2 -0.68 2 0 2 C0 1.34 0 0.68 0 0 Z " fill="#C7DAEC" transform="translate(39,118)"/>
<path d="M0 0 C0.66 0.66 1.32 1.32 2 2 C1.625 4.625 1.625 4.625 1 7 C0.01 6.01 -0.98 5.02 -2 4 C-1.34 2.68 -0.68 1.36 0 0 Z " fill="#B2C8E3" transform="translate(34,111)"/>
<path d="M0 0 C0.598125 0.350625 1.19625 0.70125 1.8125 1.0625 C1.1525 1.7225 0.4925 2.3825 -0.1875 3.0625 C-2.25 2.8125 -2.25 2.8125 -4.1875 2.0625 C-4.5175 1.4025 -4.8475 0.7425 -5.1875 0.0625 C-2.1875 -0.9375 -2.1875 -0.9375 0 0 Z " fill="#B1C8E2" transform="translate(64.1875,88.9375)"/>
<path d="M0 0 C0.33 0 0.66 0 1 0 C1.1875 2.875 1.1875 2.875 1 6 C0.01 6.66 -0.98 7.32 -2 8 C-2 6.02 -2 4.04 -2 2 C-1.34 2 -0.68 2 0 2 C0 1.34 0 0.68 0 0 Z " fill="#5E94C4" transform="translate(18,78)"/>
</svg>
