<svg id="Layer_1" data-name="Layer 1" xmlns="http://www.w3.org/2000/svg" xmlns:xlink="http://www.w3.org/1999/xlink" viewBox="0 0 540.5928 537.47"><defs><style>.cls-1{fill:url(#Yellow);}.cls-2{fill:url(#linear-gradient);}.cls-3{fill:url(#linear-gradient-2);}</style><linearGradient id="Yellow" x1="535.2535" y1="611.6447" x2="851.1988" y2="444.8958" gradientUnits="userSpaceOnUse"><stop offset="0" stop-color="#fff7a9"/><stop offset="0.5" stop-color="#fff100"/><stop offset="1" stop-color="gold"/></linearGradient><linearGradient id="linear-gradient" x1="894.4862" y1="459.5397" x2="638.2195" y2="217.315" gradientUnits="userSpaceOnUse"><stop offset="0.0736" stop-color="#fff7a9"/><stop offset="0.5" stop-color="#fff100"/><stop offset="1" stop-color="gold"/></linearGradient><linearGradient id="linear-gradient-2" x1="541.9088" y1="160.8034" x2="531.3773" y2="503.0775" gradientUnits="userSpaceOnUse"><stop offset="0.2577" stop-color="#fff7a9"/><stop offset="0.5541" stop-color="#fff100"/><stop offset="1" stop-color="gold"/></linearGradient></defs><title>mobius2</title><path class="cls-1" d="M935,518.5a65.3862,65.3862,0,0,1-.32,6.57C927.91,596.3,811.55,653,669,653c-146.91,0-266-60.22-266-134.5a67.9088,67.9088,0,0,1,.63-9.25c4.29,35.41,18.32,62.73,42.37,76.61C503.39,619,598.49,564.45,670.5,461.94q13.05-18.57,24.98-39.19,10.59-18.345,19.34-36.76C839.89,396.97,935,452.12,935,518.5Z" transform="translate(-398.2026 -115.53)"/><path class="cls-2" d="M934.68,531c.22-2.2116.32-4.4333.32-6.6651,0-67.3412-95.11-123.29-220.18-134.4287-14.88-1.329-30.2-2.0189-45.82-2.0189-14.62,0-28.96.6087-42.94,1.7754C571.31,272.886,570.89,159.3149,629,125.2792c.49-.2841.99-.5682,1.49-.8421,13.9-5.3869,27.35-8.43,40.01-8.9071,12.66.4768,26.11,3.52,40.01,8.9071C767.01,146.36,830.8,206.965,878.48,290.7509,928.72,379.0309,948.05,470.1616,934.68,531Z" transform="translate(-398.2026 -115.53)"/><path class="cls-3" d="M666.5,461.94C594.49,564.45,499.39,619,442,585.86c-24.05-13.88-38.08-41.2-42.37-76.61-7.2-59.31,12.9-141.33,58.89-221,47.68-82.59,111.47-142.33,167.97-163.94-.5.27-1,.55-1.49.83-58.11,33.55-57.69,145.5-2.94,260.61q8.805,18.495,19.46,37Q653.4,443.33,666.5,461.94Z" transform="translate(-398.2026 -115.53)"/></svg>