<svg id="Layer_1" data-name="Layer 1" xmlns="http://www.w3.org/2000/svg" xmlns:xlink="http://www.w3.org/1999/xlink" viewBox="0 0 608.9036 605"><defs><style>.cls-1{fill:url(#Sky);}.cls-2{fill:url(#Spectrum_);}.cls-3{fill:url(#linear-gradient);}.cls-4{fill:url(#Spectrum_2);}</style><linearGradient id="Sky" x1="373.36" y1="581.36" x2="378.82" y2="581.36" gradientUnits="userSpaceOnUse"><stop offset="0" stop-color="#cce0f4"/><stop offset="0.0641" stop-color="#c3dcf2"/><stop offset="0.1706" stop-color="#a9d2ee"/><stop offset="0.3066" stop-color="#80c2e7"/><stop offset="0.4649" stop-color="#47acde"/><stop offset="0.5674" stop-color="#1e9cd7"/><stop offset="0.8652" stop-color="#0075be"/><stop offset="0.9944" stop-color="#005b97"/></linearGradient><linearGradient id="Spectrum_" x1="473.5078" y1="679.9346" x2="1600.2513" y2="162.4097" gradientUnits="userSpaceOnUse"><stop offset="0" stop-color="#00a8de"/><stop offset="0.2" stop-color="#333391"/><stop offset="0.4" stop-color="#e91388"/><stop offset="0.6" stop-color="#eb2d2e"/><stop offset="0.8" stop-color="#fde92b"/><stop offset="1" stop-color="#009e54"/></linearGradient><linearGradient id="linear-gradient" x1="946.9965" y1="518.5475" x2="-60.2442" y2="-498.9264" gradientUnits="userSpaceOnUse"><stop offset="0" stop-color="#00a8de"/><stop offset="0.2" stop-color="#333391"/><stop offset="0.4" stop-color="#e91388"/><stop offset="0.6" stop-color="#eb2d2e"/><stop offset="0.8" stop-color="#fde92b"/><stop offset="0.9379" stop-color="#009e54"/></linearGradient><linearGradient id="Spectrum_2" x1="481.6575" y1="146.9799" x2="601.3255" y2="1191.3546" xlink:href="#Spectrum_"/></defs><title>mobius1</title><path class="cls-1" d="M373.36,574.49a123.2233,123.2233,0,0,0,5.46,13.74A85.979,85.979,0,0,1,373.36,574.49Z" transform="translate(-364.8114 -97)"/><path class="cls-2" d="M970,552c0,1.53-.05,3.06-.14,4.58C965.02,637.3,832.62,702,670,702c-117.77,0-219.69-33.93-268.79-83.31a76.4621,76.4621,0,0,0,12.03,8.6c65.14,37.61,174.45-27.14,256.03-146.77q12.39-18.195,23.88-38.04,11.205-19.41,20.6-38.89C858.7,414.17,970,476.59,970,552Z" transform="translate(-364.8114 -97)"/><path class="cls-3" d="M969.86,556.58c.09-1.52.14-3.05.14-4.58,0-75.41-111.3-137.83-256.25-148.41C699.47,402.54,684.86,402,670,402c-15.35,0-30.44.58-45.17,1.69-63.27-130.79-64.85-258.33.45-296.03a75.9367,75.9367,0,0,1,11.81-5.53A126.2117,126.2117,0,0,1,669.43,97a126.4417,126.4417,0,0,1,31.77,5.05c66.78,18.94,145.84,89.72,203.98,190.42C961.14,389.38,983.4,489.22,969.86,556.58Z" transform="translate(-364.8114 -97)"/><path class="cls-4" d="M669.27,480.52C587.69,600.15,478.38,664.9,413.24,627.29a76.4621,76.4621,0,0,1-12.03-8.6q-.015,0-.03-.03a117.7973,117.7973,0,0,1-22.36-30.43,123.2233,123.2233,0,0,1-5.46-13.74c-.01-.05-.03-.1-.04-.14-22.01-66.71-1.08-176.04,60.02-281.87,58.07-100.59,137.02-171.32,203.75-190.35a75.9367,75.9367,0,0,0-11.81,5.53c-65.3,37.7-63.72,165.24-.45,296.03,6.25,12.92,13.1,25.88,20.55,38.78Q656.825,462.3,669.27,480.52Z" transform="translate(-364.8114 -97)"/></svg>