<svg id="Layer_1" data-name="Layer 1" xmlns="http://www.w3.org/2000/svg" xmlns:xlink="http://www.w3.org/1999/xlink" viewBox="0 0 599 600"><defs><style>.cls-1{fill:url(#Yellow_Pepper);}.cls-2{fill:url(#Yellow_Pepper-2);}</style><linearGradient id="Yellow_Pepper" x1="477" y1="384.96" x2="1016" y2="384.96" gradientUnits="userSpaceOnUse"><stop offset="0.0225" stop-color="#c89419"/><stop offset="0.0683" stop-color="#e0a41a"/><stop offset="0.1011" stop-color="#f4b21b"/><stop offset="0.233" stop-color="#fcc633"/><stop offset="0.2809" stop-color="#ffce3d"/><stop offset="0.4494" stop-color="#f8cb3a"/><stop offset="0.51" stop-color="#f4d352"/><stop offset="0.6374" stop-color="#e9e890"/><stop offset="0.6573" stop-color="#e7ec9a"/><stop offset="0.6722" stop-color="#eae584"/><stop offset="0.7" stop-color="#efda61"/><stop offset="0.7295" stop-color="#f3d244"/><stop offset="0.761" stop-color="#f6cb2e"/><stop offset="0.7951" stop-color="#f8c61e"/><stop offset="0.8339" stop-color="#fac315"/><stop offset="0.8876" stop-color="#fac212"/><stop offset="0.9044" stop-color="#f7c92a"/><stop offset="0.9397" stop-color="#eedc68"/><stop offset="0.9663" stop-color="#e7ec9a"/></linearGradient><linearGradient id="Yellow_Pepper-2" x1="131" y1="385.04" x2="670" y2="385.04" xlink:href="#Yellow_Pepper"/></defs><title>Untitled-8</title><path class="cls-1" d="M1016,385c0,163.46-130.71,296.37-293.32,299.92C852.09,681.64,956,575.7,956,445.5a239.93,239.93,0,0,0-7.71-60.5C921.49,282.02,827.87,206,716.5,206S511.51,282.02,484.71,385A239.93,239.93,0,0,1,477,324.5C477,192.4,583.96,85.27,716,85h.5c1.03,0,2.07.01,3.1.02s2.05.03,3.08.06C885.29,88.63,1016,221.54,1016,385Z" transform="translate(-417 -85)"/><path class="cls-2" d="M417,385C417,221.54,547.71,88.63,710.32,85.08,580.91,88.36,477,194.3,477,324.5a239.93,239.93,0,0,0,7.71,60.5c26.8,102.98,120.42,179,231.79,179s204.99-76.02,231.79-179A239.93,239.93,0,0,1,956,445.5C956,577.6,849.04,684.73,717,685h-.5c-1.03,0-2.07-.01-3.1-.02s-2.05-.03-3.08-.06C547.71,681.37,417,548.46,417,385Z" transform="translate(-417 -85)"/></svg>